REM MD5 409afdc6315961a94a4d371adde02390
FILE "Euro Demo 33 (Europe).bin" BINARY
  TRACK 01 MODE2/2352
    INDEX 01 00:00:00
  TRACK 02 AUDIO
    INDEX 00 53:50:46
    INDEX 01 53:52:46
  TRACK 03 AUDIO
    INDEX 00 56:52:21
    INDEX 01 56:54:21
  TRACK 04 AUDIO
    INDEX 00 59:12:44
    INDEX 01 59:14:44
REM LEADOUT 62:16:00
